<svg width="30" height="30" viewBox="0 0 30 30" fill="none" xmlns="http://www.w3.org/2000/svg">
<path d="M4.53125 25.4375C3.88542 25.4375 3.3125 25.1875 2.8125 24.6875C2.3125 24.1875 2.0625 23.6146 2.0625 22.9688V6.84375C2.0625 6.17708 2.3125 5.59375 2.8125 5.09375C3.3125 4.59375 3.88542 4.34375 4.53125 4.34375H11.9375C12.2708 4.34375 12.5938 4.41146 12.9062 4.54688C13.2188 4.68229 13.4896 4.86458 13.7188 5.09375L15.0312 6.40625H25.4688C26.1354 6.40625 26.7188 6.65625 27.2188 7.15625C27.7188 7.65625 27.9688 8.23958 27.9688 8.90625H13.9688L11.9062 6.84375H4.53125V23.0312L7.21875 12.5938C7.36458 12.0521 7.65625 11.6146 8.09375 11.2812C8.53125 10.9479 9.04167 10.7812 9.625 10.7812H26.5C27.2917 10.7812 27.9479 11.1042 28.4688 11.75C28.9896 12.3958 29.125 13.125 28.875 13.9375L26.5312 23.2188C26.3021 24.0104 25.9375 24.5781 25.4375 24.9219C24.9375 25.2656 24.2708 25.4375 23.4375 25.4375H4.53125ZM7.1875 22.9688H24L26.375 13.25H9.5625L7.1875 22.9688ZM7.1875 22.9688L9.5625 13.25L7.1875 22.9688ZM4.53125 11.375V6.84375V11.375Z" fill="#0056D2"/>
</svg>
