<svg width="63" height="61" viewBox="0 0 63 61" fill="none" xmlns="http://www.w3.org/2000/svg">
<g clip-path="url(#clip0_1812_7341)">
<path d="M58.125 6.87499V18.25H54.25C52 18.25 50.1667 18.5833 48.75 19.25C47.4167 19.9167 46.4167 21.125 45.75 22.875C45.0833 24.5417 44.75 26.875 44.75 29.875V39L41 31.25C41.5833 30.75 42.4167 30.375 43.5 30.125C44.5833 29.7917 45.7917 29.625 47.125 29.625C50.0417 29.625 52.5 30.5417 54.5 32.375C56.5 34.125 57.5 36.625 57.5 39.875C57.5 42.9583 56.5417 45.5833 54.625 47.75C52.7083 49.8333 49.9583 50.875 46.375 50.875C44.0417 50.875 41.875 50.3333 39.875 49.25C37.9583 48.1667 36.375 46.3333 35.125 43.75C33.9583 41.1667 33.375 37.6667 33.375 33.25V31.375C33.375 25.4583 34.2083 20.7083 35.875 17.125C37.625 13.5417 40.125 10.9583 43.375 9.375C46.625 7.70833 50.625 6.87499 55.375 6.87499H58.125ZM28.75 6.87499V18.25H24.875C22.625 18.25 20.7917 18.5833 19.375 19.25C18.0417 19.9167 17.0417 21.125 16.375 22.875C15.7083 24.5417 15.375 26.875 15.375 29.875V39L11.625 31.25C12.2083 30.75 13.0417 30.375 14.125 30.125C15.2083 29.7917 16.4167 29.625 17.75 29.625C20.6667 29.625 23.125 30.5417 25.125 32.375C27.125 34.125 28.125 36.625 28.125 39.875C28.125 42.9583 27.1667 45.5833 25.25 47.75C23.3333 49.8333 20.5833 50.875 17 50.875C14.6667 50.875 12.5 50.3333 10.5 49.25C8.58333 48.1667 7 46.3333 5.75 43.75C4.58333 41.1667 4 37.6667 4 33.25V31.375C4 25.4583 4.83333 20.7083 6.5 17.125C8.25 13.5417 10.75 10.9583 14 9.375C17.25 7.70833 21.25 6.87499 26 6.87499H28.75Z" fill="#0056D2"/>
</g>
<defs>
<clipPath id="clip0_1812_7341">
<rect width="63" height="60" fill="white" transform="translate(0 0.5)"/>
</clipPath>
</defs>
</svg>
