<svg width="64" height="64" viewBox="0 0 64 64" fill="none" xmlns="http://www.w3.org/2000/svg">
<circle cx="32" cy="32" r="32" fill="#0056D2" fill-opacity="0.05"/>
<path d="M32.0001 31.6833C30.1001 31.6833 28.5432 31.0764 27.3293 29.8625C26.1154 28.6486 25.5085 27.0916 25.5085 25.1916C25.5085 23.2653 26.1154 21.6951 27.3293 20.4812C28.5432 19.2673 30.1001 18.6604 32.0001 18.6604C33.9001 18.6604 35.4637 19.2673 36.6908 20.4812C37.9178 21.6951 38.5314 23.2653 38.5314 25.1916C38.5314 27.0916 37.9178 28.6486 36.6908 29.8625C35.4637 31.0764 33.9001 31.6833 32.0001 31.6833ZM42.0939 45.4979H21.9064C21.0355 45.4979 20.2967 45.1944 19.6897 44.5875C19.0828 43.9805 18.7793 43.2416 18.7793 42.3708V41.1833C18.7793 40.1014 19.0564 39.158 19.6105 38.3531C20.1647 37.5482 20.8904 36.9347 21.7876 36.5125C23.5821 35.6944 25.3105 35.0875 26.973 34.6916C28.6355 34.2958 30.3112 34.0979 32.0001 34.0979C33.7154 34.0979 35.3977 34.3024 37.047 34.7114C38.6963 35.1205 40.405 35.7208 42.173 36.5125C43.0967 36.9083 43.8421 37.5087 44.4095 38.3135C44.9769 39.1184 45.2605 40.075 45.2605 41.1833V42.3708C45.2605 43.2416 44.9505 43.9805 44.3303 44.5875C43.7102 45.1944 42.9647 45.4979 42.0939 45.4979ZM21.9064 42.3708H42.0939V41.2625C42.0939 40.8666 41.9685 40.4774 41.7178 40.0948C41.4671 39.7121 41.1571 39.4416 40.7876 39.2833C39.1515 38.4916 37.654 37.9507 36.2949 37.6604C34.9359 37.3701 33.5043 37.225 32.0001 37.225C30.5224 37.225 29.0776 37.3701 27.6658 37.6604C26.2539 37.9507 24.7564 38.4916 23.173 39.2833C22.8036 39.4416 22.5001 39.7121 22.2626 40.0948C22.0251 40.4774 21.9064 40.8666 21.9064 41.2625V42.3708ZM32.0001 28.5166C32.9765 28.5166 33.7814 28.2 34.4147 27.5666C35.048 26.9333 35.3647 26.1416 35.3647 25.1916C35.3647 24.1889 35.048 23.3774 34.4147 22.7573C33.7814 22.1371 32.9765 21.8271 32.0001 21.8271C31.0237 21.8271 30.2189 22.1371 29.5855 22.7573C28.9522 23.3774 28.6355 24.1757 28.6355 25.1521C28.6355 26.1285 28.9522 26.9333 29.5855 27.5666C30.2189 28.2 31.0237 28.5166 32.0001 28.5166Z" fill="#0056D2"/>
</svg>
