<svg width="64" height="64" viewBox="0 0 64 64" fill="none" xmlns="http://www.w3.org/2000/svg">
<circle cx="32" cy="32" r="32" fill="#0056D2" fill-opacity="0.05"/>
<path d="M30.2189 37.5021L26.973 34.2563C26.8411 34.1243 26.7026 34.032 26.5574 33.9792C26.4123 33.9264 26.2605 33.9 26.1022 33.9C25.9439 33.9 25.7921 33.933 25.647 33.999C25.5019 34.0649 25.3765 34.1639 25.271 34.2959C25.0335 34.5334 24.9147 34.817 24.9147 35.1469C24.9147 35.4768 25.0335 35.7736 25.271 36.0375L29.071 39.7979C29.2293 39.9563 29.4074 40.0816 29.6053 40.174C29.8033 40.2663 29.9946 40.3125 30.1793 40.3125C30.3904 40.3125 30.5883 40.2663 30.773 40.174C30.9578 40.0816 31.1293 39.9563 31.2876 39.7979L38.6105 32.5146C38.8217 32.2507 38.9272 31.9604 38.9272 31.6438C38.9272 31.3271 38.8217 31.05 38.6105 30.8125C38.373 30.575 38.0828 30.4563 37.7397 30.4563C37.3967 30.4563 37.1064 30.575 36.8689 30.8125L30.2189 37.5021ZM21.9064 48.3875C21.0619 48.3875 20.3296 48.0774 19.7095 47.4573C19.0894 46.8372 18.7793 46.1049 18.7793 45.2604V18.7396C18.7793 17.8688 19.0894 17.1233 19.7095 16.5031C20.3296 15.883 21.0619 15.5729 21.9064 15.5729H34.9293C35.3515 15.5729 35.7605 15.6653 36.1564 15.85C36.5522 16.0347 36.8953 16.2722 37.1855 16.5625L44.271 23.6479C44.5612 23.9382 44.7987 24.2813 44.9835 24.6771C45.1682 25.0729 45.2605 25.482 45.2605 25.9042V45.2604C45.2605 46.1049 44.9505 46.8372 44.3303 47.4573C43.7102 48.0774 42.9647 48.3875 42.0939 48.3875H21.9064ZM34.6126 24.5188V18.7396H21.9064V45.2604H42.0939V26.1021H36.196C35.7474 26.1021 35.3713 25.9504 35.0678 25.6469C34.7644 25.3434 34.6126 24.9674 34.6126 24.5188ZM21.9064 18.7396V26.1021V18.7396V45.2604V18.7396Z" fill="#0056D2"/>
</svg>
