<svg width="64" height="64" viewBox="0 0 64 64" fill="none" xmlns="http://www.w3.org/2000/svg">
<circle cx="32" cy="32" r="32" fill="#0056D2" fill-opacity="0.05"/>
<path d="M30.3371 30.7729L28.0809 28.5167C27.9753 28.4111 27.7378 28.4111 27.3684 28.5167C26.9989 28.6222 26.6427 28.7278 26.2996 28.8333C25.9566 28.9389 25.7125 28.9983 25.5673 29.0115C25.4222 29.0247 25.5211 28.8597 25.8642 28.5167C25.5475 28.8333 25.3892 29.2028 25.3892 29.625C25.3892 30.0472 25.5475 30.4167 25.8642 30.7333L29.2288 34.0979C29.5454 34.4146 29.9215 34.5729 30.3569 34.5729C30.7923 34.5729 31.1552 34.4146 31.4454 34.0979L38.7684 27.3687C38.7684 26.9729 38.7354 26.5771 38.6694 26.1812C38.6034 25.7854 38.4253 25.4424 38.135 25.1521C37.8184 24.8354 37.4423 24.6771 37.0069 24.6771C36.5715 24.6771 36.2086 24.8354 35.9184 25.1521L30.3371 30.7729ZM14.0684 47.0813V44.4292H48.6246C48.9941 44.4292 49.3041 44.5611 49.5548 44.825C49.8055 45.0889 49.9309 45.4056 49.9309 45.775C49.9309 46.1444 49.8055 46.4545 49.5548 46.7052C49.3041 46.9559 48.9941 47.0813 48.6246 47.0813H14.0684ZM18.7392 42.0542C17.8947 42.0542 17.1625 41.7441 16.5423 41.124C15.9222 40.5038 15.6121 39.7715 15.6121 38.9271V20.3229C15.6121 19.4521 15.9222 18.7066 16.5423 18.0865C17.1625 17.4663 17.8947 17.1562 18.7392 17.1562H45.26C46.1309 17.1562 46.8763 17.4663 47.4965 18.0865C48.1166 18.7066 48.4267 19.4521 48.4267 20.3229V38.9271C48.4267 39.7715 48.1166 40.5038 47.4965 41.124C46.8763 41.7441 46.1309 42.0542 45.26 42.0542H18.7392ZM18.7392 38.9271H45.26V20.3229H18.7392V38.9271V38.9271ZM18.7392 38.9271V20.3229V38.9271V38.9271Z" fill="#0056D2"/>
</svg>
