<svg width="64" height="64" viewBox="0 0 64 64" fill="none" xmlns="http://www.w3.org/2000/svg">
<circle cx="32" cy="32" r="32" fill="#0056D2" fill-opacity="0.05"/>
<path d="M31.0533 45.5375C31.1852 45.5375 31.337 45.5111 31.5085 45.4583C31.68 45.4056 31.8318 45.3132 31.9637 45.1812L45.145 31.9604C45.5408 31.5646 45.8509 31.0962 46.0752 30.5552C46.2995 30.0142 46.4116 29.4535 46.4116 28.8729C46.4116 28.2924 46.2995 27.7184 46.0752 27.151C45.8509 26.5837 45.5408 26.0889 45.145 25.6667L39.1283 19.65C38.7589 19.3069 38.33 19.0497 37.8418 18.8781C37.3536 18.7066 36.872 18.6208 36.397 18.6208C35.8957 18.6208 35.4075 18.7 34.9325 18.8583C34.4575 19.0167 34.0616 19.241 33.745 19.5312L33.3095 20.0062L36.2783 22.975C36.7005 23.45 37.0766 23.991 37.4064 24.5979C37.7363 25.2049 37.9012 25.8778 37.9012 26.6167C37.9012 27.8306 37.4196 28.9125 36.4564 29.8625C35.4932 30.8125 34.3915 31.2875 33.1512 31.2875C32.3332 31.2875 31.6536 31.1622 31.1127 30.9115C30.5717 30.6608 30.0637 30.2979 29.5887 29.8229L26.7783 27.0125L20.3262 33.4646C20.1943 33.5701 20.1019 33.7021 20.0491 33.8604C19.9964 34.0187 19.97 34.1771 19.97 34.3354C19.97 34.6785 20.0755 34.9556 20.2866 35.1667C20.4977 35.3778 20.7748 35.4833 21.1179 35.4833C21.2762 35.4833 21.4345 35.4437 21.5929 35.3646C21.7512 35.2854 21.8832 35.1931 21.9887 35.0875L27.0554 30.0208L28.7179 31.6833L23.6908 36.7104C23.5589 36.8424 23.4665 36.9941 23.4137 37.1656C23.3609 37.3372 23.3345 37.5021 23.3345 37.6604C23.3345 37.9771 23.4401 38.2476 23.6512 38.4719C23.8623 38.6962 24.1262 38.8083 24.4429 38.8083C24.6012 38.8083 24.7595 38.7753 24.9179 38.7094C25.0762 38.6434 25.2214 38.5576 25.3533 38.4521L30.3408 33.425L32.0033 35.0875L26.9366 40.1146C26.8575 40.2201 26.7783 40.3587 26.6991 40.5302C26.62 40.7017 26.5804 40.8667 26.5804 41.025C26.5804 41.3417 26.6991 41.6187 26.9366 41.8562C27.1741 42.0937 27.4512 42.2125 27.7679 42.2125C27.9262 42.2125 28.078 42.1795 28.2231 42.1135C28.3682 42.0476 28.4936 41.9618 28.5991 41.8562L33.6658 36.75L35.3283 38.4125L30.2616 43.4792C30.1561 43.6111 30.0703 43.7628 30.0043 43.9344C29.9384 44.1059 29.9054 44.2576 29.9054 44.3896C29.9054 44.759 30.0109 45.0427 30.222 45.2406C30.4332 45.4385 30.7102 45.5375 31.0533 45.5375ZM31.0929 48.8229C30.0901 48.8229 29.1863 48.4931 28.3814 47.8333C27.5766 47.1736 27.0554 46.3292 26.8179 45.3C25.9734 45.1417 25.2411 44.7458 24.621 44.1125C24.0009 43.4792 23.6116 42.7535 23.4533 41.9354C22.6616 41.7507 21.9623 41.3549 21.3554 40.7479C20.7484 40.141 20.3526 39.4417 20.1679 38.65C19.1651 38.4125 18.3273 37.8913 17.6543 37.0865C16.9814 36.2816 16.645 35.3514 16.645 34.2958C16.645 33.7417 16.7571 33.1875 16.9814 32.6333C17.2057 32.0792 17.5158 31.591 17.9116 31.1687L26.7783 22.3021L31.7262 27.2104C31.9373 27.4215 32.1682 27.5931 32.4189 27.725C32.6696 27.8569 32.9401 27.9229 33.2304 27.9229C33.547 27.9229 33.8505 27.7712 34.1408 27.4677C34.4311 27.1642 34.5762 26.8542 34.5762 26.5375C34.5762 26.3792 34.5168 26.1878 34.3981 25.9635C34.2793 25.7392 34.1276 25.5215 33.9429 25.3104L28.2033 19.5708C27.8866 19.2542 27.471 19.0167 26.9564 18.8583C26.4418 18.7 25.9075 18.6208 25.3533 18.6208C24.7991 18.6208 24.2911 18.7 23.8293 18.8583C23.3675 19.0167 22.9915 19.2542 22.7012 19.5708L17.0804 25.1125C16.7901 25.4292 16.579 25.8052 16.447 26.2406C16.3151 26.676 16.2491 27.184 16.2491 27.7646C16.2755 28.1868 16.3943 28.5826 16.6054 28.9521C16.8165 29.3215 17.0408 29.6646 17.2783 29.9812L14.9429 32.3167C14.4151 31.8681 13.9665 31.2083 13.597 30.3375C13.2276 29.4667 13.0297 28.5958 13.0033 27.725C12.9769 26.7222 13.1089 25.8118 13.3991 24.9937C13.6894 24.1757 14.1512 23.45 14.7845 22.8167L20.3262 17.2354C20.9595 16.6021 21.738 16.1337 22.6616 15.8302C23.5852 15.5267 24.4957 15.375 25.3929 15.375C26.3693 15.375 27.2929 15.5267 28.1637 15.8302C29.0345 16.1337 29.7866 16.5757 30.42 17.1562L30.895 17.5917L31.3304 17.1562C31.9373 16.6021 32.7026 16.1667 33.6262 15.85C34.5498 15.5333 35.4734 15.375 36.397 15.375C37.3207 15.375 38.2311 15.5465 39.1283 15.8896C40.0255 16.2326 40.7908 16.7208 41.4241 17.3542L47.6783 23.5687C48.338 24.2285 48.8328 25.0399 49.1627 26.0031C49.4925 26.9663 49.6575 27.9097 49.6575 28.8333C49.6575 29.7833 49.4727 30.7531 49.1033 31.7427C48.7339 32.7323 48.2193 33.5701 47.5596 34.2562L34.2596 47.5167C33.8373 47.9389 33.3557 48.2621 32.8148 48.4865C32.2738 48.7108 31.6998 48.8229 31.0929 48.8229Z" fill="#0056D2"/>
</svg>
